<svg xmlns="http://www.w3.org/2000/svg" viewBox="0 0 500 500"><g id="freepik--Floor--inject-751"><ellipse cx="250" cy="348.91" rx="233.78" ry="137.73" style="fill:#f5f5f5"></ellipse></g><g id="freepik--Shadows--inject-751"><path d="M367.68,328.83,286.27,283a2.24,2.24,0,1,0-2.09,4l21.23,12.49L277.86,315.4l-22.56-12a2.24,2.24,0,1,0-2.1,4l76.4,42.9a7.62,7.62,0,0,0,7.59,0l30.49-17.62A2.2,2.2,0,0,0,367.68,328.83Z" style="fill:#e0e0e0"></path><path d="M328.66,395.55l-128.1,74a2.41,2.41,0,0,1-2.41,0l-128.1-74a2.41,2.41,0,0,1,0-4.19l128.1-74a2.41,2.41,0,0,1,2.41,0l128.1,74A2.41,2.41,0,0,1,328.66,395.55Z" style="fill:#e0e0e0"></path><path d="M398.1,417.19c-9.85,5.69-25.82,5.69-35.67,0s-9.85-14.9,0-20.59,25.82-5.69,35.67,0S408,411.51,398.1,417.19Z" style="fill:#e0e0e0"></path><path d="M334.21,256.94l-13.56,7.83a1.5,1.5,0,0,0,0,2.59l123.84,71.5a5.22,5.22,0,0,0,5.19,0L463.24,331a1.5,1.5,0,0,0,0-2.59L339.4,256.94A5.22,5.22,0,0,0,334.21,256.94Z" style="fill:#e0e0e0"></path></g><g id="freepik--Shelf--inject-751"><path d="M452.15,331.65V282.37H442v49.28a2.54,2.54,0,0,0,1.49,2.07,7.94,7.94,0,0,0,7.17,0A2.52,2.52,0,0,0,452.15,331.65Z" style="fill:#ebebeb"></path><path d="M340.37,267V217.76H330.24V267a2.51,2.51,0,0,0,1.48,2.07,7.88,7.88,0,0,0,7.17,0A2.51,2.51,0,0,0,340.37,267Z" style="fill:#ebebeb"></path><polygon points="318.41 219.29 318.41 223.36 447.08 297.65 447.08 293.58 318.41 219.29" style="fill:#f0f0f0"></polygon><polygon points="336.81 208.67 318.41 219.29 447.08 293.58 465.48 282.96 336.81 208.67" style="fill:#fff"></polygon><path d="M336.81,209.83,463.48,283l-16.4,9.47L320.41,219.29l16.4-9.46m0-1.16-18.4,10.62,128.67,74.29L465.48,283,336.81,208.67Z" style="fill:#f0f0f0"></path><polygon points="447.08 297.65 447.08 293.58 465.48 282.96 465.48 287.03 447.08 297.65" style="fill:#ebebeb"></polygon><path d="M428,249.45s-.37-2.19,1.09-2.65a1.91,1.91,0,0,1,2.41,1.56,3.47,3.47,0,0,1-2.57,4.07Z" style="fill:#00B0FF"></path><path d="M436.19,264.56a4.68,4.68,0,0,1-.05.74c-.47,3.81-1.4,6.35-3.63,6.46a36.44,36.44,0,0,1-5.42-.37l-.16,0a3.25,3.25,0,0,1-.45-.08,21.49,21.49,0,0,1-4-1,14.75,14.75,0,0,1-4.14-2.22,10.36,10.36,0,0,1-1.22-1.08,6.84,6.84,0,0,1-1.58-2.36v-5.12a10.35,10.35,0,0,1-.19-2.58,6.26,6.26,0,0,1,.12-1c0-.18.07-.35.12-.52h0a3.7,3.7,0,0,1,1.49-2.21l-.07-.39h0l-1-5.68a3.4,3.4,0,0,1-.29-.86v0a3.88,3.88,0,0,1,1.46-4c2.6-2.13,5.64-4.78,11.13-2.55s5,12,4.73,15.08-.44,4.89-.44,4.89a6,6,0,0,1,3.12,2.82h0a.19.19,0,0,1,0,.08,1.61,1.61,0,0,1,.16.38,3.8,3.8,0,0,1,.15.51,3.43,3.43,0,0,1,.08.48.53.53,0,0,1,0,.13A3.08,3.08,0,0,1,436.19,264.56Z" style="fill:#e0e0e0"></path><path d="M436.15,265.31c-.48,3.8-1.41,6.35-3.64,6.45-2.92-.71-1.84-6.06-.33-8.7a2.11,2.11,0,0,1,3.55-.61A5.12,5.12,0,0,1,436.15,265.31Z" style="fill:#f0f0f0"></path><path d="M428.31,252.54V258a5.1,5.1,0,0,1-5.26,4.7c-1.35,0-1.76-1.69-1.76-3.34v-3.67Z" style="fill:#f0f0f0"></path><path d="M417.74,244.47l.06-.09.07-.11c2.5,3.42,10.38,3.55,10.38,3.55V252a4.43,4.43,0,0,1-1.09,2.95,9,9,0,0,1-4.16,2.65c-3.56,1-4.55-1.2-6.19-5.23a12.06,12.06,0,0,1-1.09-6.23A4,4,0,0,0,417.74,244.47Z" style="fill:#f0f0f0"></path><path d="M366.46,220.2l-6.52-.08h-.07l-6.52.08s-.07,8,2.4,11.31h0a5.48,5.48,0,0,0,4.16,1.48,5.4,5.4,0,0,0,4.15-1.49C366.53,228.23,366.46,220.2,366.46,220.2Z" style="fill:#f0f0f0"></path><path d="M366.46,220.2c0,2-2.93,3.52-6.55,3.52s-6.56-1.57-6.56-3.52,2.94-3.52,6.56-3.52S366.46,218.26,366.46,220.2Z" style="fill:#fafafa"></path><path d="M359.91,219.27c2.25,0,4.16.72,4.84,1.72a1.43,1.43,0,0,0,.26-.79c0-1.39-2.29-2.51-5.1-2.51s-5.1,1.12-5.1,2.51a1.36,1.36,0,0,0,.26.79C355.74,220,357.65,219.27,359.91,219.27Z" style="fill:#f0f0f0"></path><path d="M359.91,219.27c-2.26,0-4.17.72-4.84,1.72.67,1,2.58,1.73,4.84,1.73s4.16-.72,4.84-1.73C364.07,220,362.16,219.27,359.91,219.27Z" style="fill:#e0e0e0"></path><ellipse cx="388.52" cy="232.21" rx="15.25" ry="26.41" transform="translate(-64.05 225.37) rotate(-30)" style="fill:#f0f0f0"></ellipse><ellipse cx="387.45" cy="232.82" rx="15.25" ry="26.41" transform="translate(-64.5 224.92) rotate(-30)" style="fill:#fafafa"></ellipse><ellipse cx="387.45" cy="232.82" rx="10.86" ry="18.8" transform="translate(-64.5 224.92) rotate(-30)" style="fill:#ebebeb"></ellipse><path d="M340.37,217.76V168.49H330.24v49.27a2.51,2.51,0,0,0,1.48,2.07,7.94,7.94,0,0,0,7.17,0A2.51,2.51,0,0,0,340.37,217.76Z" style="fill:#ebebeb"></path><path d="M452.15,282.37V233.1H442v49.27a2.52,2.52,0,0,0,1.49,2.07,7.88,7.88,0,0,0,7.17,0A2.51,2.51,0,0,0,452.15,282.37Z" style="fill:#ebebeb"></path><polygon points="318.41 169.5 318.41 173.56 447.08 247.85 447.08 243.78 318.41 169.5" style="fill:#f0f0f0"></polygon><polygon points="336.81 158.88 318.41 169.5 447.08 243.78 465.48 233.16 336.81 158.88" style="fill:#fff"></polygon><path d="M336.81,160l126.67,73.13-16.4,9.47L320.41,169.5l16.4-9.47m0-1.15-18.4,10.62,128.67,74.28,18.4-10.62L336.81,158.88Z" style="fill:#f0f0f0"></path><polygon points="447.08 247.85 447.08 243.78 465.48 233.16 465.48 237.23 447.08 247.85" style="fill:#ebebeb"></polygon><ellipse cx="416" cy="196.27" rx="15.25" ry="26.41" transform="translate(-42.4 234.3) rotate(-30)" style="fill:#f0f0f0"></ellipse><ellipse cx="414.93" cy="196.89" rx="15.25" ry="26.41" transform="translate(-42.85 233.85) rotate(-30)" style="fill:#fafafa"></ellipse><ellipse cx="414.93" cy="196.89" rx="10.86" ry="18.8" transform="translate(-42.85 233.85) rotate(-30)" style="fill:#ebebeb"></ellipse><ellipse cx="375.82" cy="179.84" rx="9.53" ry="16.51" transform="translate(-39.57 212.01) rotate(-30)" style="fill:#f0f0f0"></ellipse><ellipse cx="375.15" cy="180.23" rx="9.53" ry="16.51" transform="translate(-39.85 211.72) rotate(-30)" style="fill:#fafafa"></ellipse><path d="M383.47,185c0,5.3-3.72,7.45-8.32,4.8s-8.31-9.1-8.31-14.4,3.72-7.45,8.31-4.8S383.47,179.72,383.47,185Z" style="fill:#ebebeb"></path><path d="M452.15,231.85V182.57H442v49.28a2.54,2.54,0,0,0,1.49,2.07,7.94,7.94,0,0,0,7.17,0A2.52,2.52,0,0,0,452.15,231.85Z" style="fill:#ebebeb"></path><path d="M340.37,167.23V118H330.24v49.27a2.51,2.51,0,0,0,1.48,2.07,7.88,7.88,0,0,0,7.17,0A2.51,2.51,0,0,0,340.37,167.23Z" style="fill:#ebebeb"></path><polygon points="318.44 119.65 318.43 123.71 447.05 198.09 447.05 194.03 318.44 119.65" style="fill:#f0f0f0"></polygon><polygon points="336.84 109.04 318.44 119.65 447.05 194.03 465.46 183.42 336.84 109.04" style="fill:#fff"></polygon><path d="M336.84,110.19l126.62,73.23-16.41,9.45L320.44,119.65l16.4-9.46m0-1.15-18.4,10.61L447.05,194l18.41-10.61L336.84,109Z" style="fill:#f0f0f0"></path><polygon points="447.05 198.09 447.05 194.03 465.46 183.42 465.45 187.49 447.05 198.09" style="fill:#ebebeb"></polygon><path d="M366.14,103.65s1.82,7.86,11.65,5.8-11.82-11.82-11.65-5.8" style="fill:#ebebeb"></path><path d="M386.94,124.38a22.34,22.34,0,0,0-1.08,7.7v6.39a43,43,0,0,1-3.36,2.92l-.53.4-.6.43c-.12.1-.24.17-.36.26l-.83.53c-.21.14-.42.27-.64.39a11.66,11.66,0,0,1-2.25,1h0a5.12,5.12,0,0,1-1,.21c-3.75.42-17.07-4.68-18.38-8.14-.85-2.24.3-6.06.28-8.31s-.17-3.56,1.35-5.37-.17-4.75,1.82-8.25c1.34-2.38,2.08-3.53,2.84-4a2.7,2.7,0,0,0,1.16-2.26v-1a1,1,0,0,1,.83-1s0-1-.06-2.13c0-.17,0-.34,0-.52.11.66,1.36,5.86,11.65,5.8.46,0,2-1.6,2.54-1.63a14,14,0,0,0,1.43,4.69,1.48,1.48,0,0,1,.63-.15c.51,0,1.17.33,1.22,1.94,0,1.22,1,2,1.52,2.69S387.81,120.94,386.94,124.38Z" style="fill:#f0f0f0"></path><path d="M377.28,144.42c3.58-1.46,6.26-5.22,6.26-5.22s-.44-4.53-.56-7.5,2.15-6,2.4-8.89-1.77-3-2-5.06a3.74,3.74,0,0,0-1.44-2.79l.46-1.49-.62-1h0s1.76-.9,1.85,1.79c0,1.22,1,2,1.53,2.69s2.67,4,1.8,7.39a22.1,22.1,0,0,0-1.09,7.7v6.4S381,143.29,377.28,144.42Z" style="fill:#e0e0e0"></path><path d="M381.92,116.37a8,8,0,0,1-2.82,2c-1.37.39-6.4-.27-9.3-2.75a11.35,11.35,0,0,0,9.3,3.59C380.38,119.17,382.64,117.11,381.92,116.37Z" style="fill:#e0e0e0"></path><path d="M366.21,106.3s1,5.63,4.13,8.12a9,9,0,0,1-4-4.74C365.37,107.27,366.21,106.3,366.21,106.3Z" style="fill:#e0e0e0"></path><path d="M383.54,116.79s-.15,5.83-7.17,5.66-12.21-6.76-12.21-6.76,4.69,7.87,13.12,7.87S383.54,116.79,383.54,116.79Z" style="fill:#e0e0e0"></path><path d="M360.16,124.83a.52.52,0,0,1,.68,0,18.65,18.65,0,0,0,2.84,2.15c1.64,1,3.42,1.6,2.78,3-.5,1.1-4.72-.18-6.45-.76a1.56,1.56,0,0,1-1-1,3.83,3.83,0,0,1-.25-2A5.84,5.84,0,0,1,360.16,124.83Z" style="fill:#e0e0e0"></path><path d="M378.89,127.57s-4.23-.36-5.49,0a3.12,3.12,0,0,0-2.28,2.29c0,.76,3.21,1.86,3.88,2.11S379.31,129.83,378.89,127.57Z" style="fill:#e0e0e0"></path><path d="M428.11,149.46l-8.87-.11h-.09l-8.87.11s-.09,10.93,3.27,15.37h0c.93,1.19,3.11,2,5.65,2s4.72-.84,5.65-2C428.21,160.38,428.11,149.46,428.11,149.46Z" style="fill:#f0f0f0"></path><ellipse cx="419.2" cy="149.46" rx="8.91" ry="4.79" style="fill:#fafafa"></ellipse><path d="M419.2,148.2c3.06,0,5.66,1,6.58,2.34a2,2,0,0,0,.35-1.08c0-1.89-3.1-3.42-6.93-3.42s-6.94,1.53-6.94,3.42a1.91,1.91,0,0,0,.36,1.08C413.53,149.18,416.13,148.2,419.2,148.2Z" style="fill:#f0f0f0"></path><path d="M419.2,148.2c-3.07,0-5.67,1-6.58,2.34.91,1.36,3.51,2.35,6.58,2.35s5.66-1,6.58-2.35C424.86,149.18,422.26,148.2,419.2,148.2Z" style="fill:#e0e0e0"></path><path d="M404.51,143.2l-6.52-.08h-.07l-6.52.08s-.07,8,2.4,11.31h0A5.48,5.48,0,0,0,398,156a5.4,5.4,0,0,0,4.15-1.49C404.58,151.23,404.51,143.2,404.51,143.2Z" style="fill:#f0f0f0"></path><path d="M404.51,143.2c0,2-2.93,3.52-6.55,3.52s-6.56-1.57-6.56-3.52,2.94-3.52,6.56-3.52S404.51,141.26,404.51,143.2Z" style="fill:#fafafa"></path><path d="M398,142.27c2.25,0,4.16.72,4.83,1.73a1.42,1.42,0,0,0,.27-.8c0-1.39-2.29-2.51-5.1-2.51s-5.1,1.12-5.1,2.51a1.41,1.41,0,0,0,.26.8C393.79,143,395.7,142.27,398,142.27Z" style="fill:#f0f0f0"></path><path d="M398,142.27c-2.26,0-4.17.72-4.84,1.73.67,1,2.58,1.72,4.84,1.72s4.16-.72,4.83-1.72C402.12,143,400.21,142.27,398,142.27Z" style="fill:#e0e0e0"></path><path d="M452.13,183.74V173.41H442v10.34a2.55,2.55,0,0,0,1.49,2.07,7.92,7.92,0,0,0,7.16,0A2.5,2.5,0,0,0,452.13,183.74Z" style="fill:#ebebeb"></path><path d="M450.65,175.48a7.91,7.91,0,0,1-7.17,0c-2-1.14-2-3,0-4.14a7.89,7.89,0,0,1,7.16,0C452.63,172.48,452.63,174.34,450.65,175.48Z" style="fill:#e0e0e0"></path><path d="M340.4,119.05V108.72H330.27V119a2.51,2.51,0,0,0,1.48,2.07,7.91,7.91,0,0,0,7.17,0A2.52,2.52,0,0,0,340.4,119.05Z" style="fill:#ebebeb"></path><path d="M338.92,110.79a7.94,7.94,0,0,1-7.17,0c-2-1.14-2-3,0-4.14a7.91,7.91,0,0,1,7.17,0C340.9,107.79,340.9,109.64,338.92,110.79Z" style="fill:#e0e0e0"></path></g><g id="freepik--Paintings--inject-751"><polygon points="120.11 93.45 61.78 127.13 57.43 124.52 115.76 90.85 120.11 93.45" style="fill:#f0f0f0"></polygon><polygon points="61.78 223.15 57.43 220.54 57.43 124.52 61.78 127.13 61.78 223.15" style="fill:#e6e6e6"></polygon><polygon points="120.11 189.47 61.78 223.15 61.78 127.13 120.11 93.45 120.11 189.47" style="fill:#fff"></polygon><path d="M119.11,95.19V188.9L62.78,221.42V127.71l56.33-32.52m1-1.73L61.78,127.13v96l58.33-33.68v-96Z" style="fill:#f0f0f0"></path><path d="M120.11,152.23a2.61,2.61,0,0,1-.46-1.38c.08-2.74-1.79-5.14-3.82-7s-4.37-3.45-5.78-5.8c-2-3.34-1.76-7.54-3-11.24s-4.32-6.92-8.1-6.8a12.43,12.43,0,0,0-4,1A19.28,19.28,0,0,0,89.3,124c-1.64,1.36-2.73,4.8-2.86,6.92a19.09,19.09,0,0,0,5.46,14.41,4.09,4.09,0,0,0,1.55,1.09c1.34.43,2.74-.43,3.8-1.36a21.78,21.78,0,0,0,3.56-4c1.06,1.62,1.8,3.7.89,5.41a5.39,5.39,0,0,1-1.61,1.65L96.31,151a14,14,0,0,0-2.26,2,12.74,12.74,0,0,0-2.23,6.11c-.43,2.57-.74,5.17-.93,7.77a7.18,7.18,0,0,1-2.17-6.48c.4-2.57,1.3-5.08,1.35-7.69a23.67,23.67,0,0,0-1.31-7.08c-.73-2.51-1.47-5-2.2-7.52-1.48-.32-2.82,1.18-3,2.68a13.49,13.49,0,0,0,.65,4.47c1.12,5.36-.79,10.83-2.17,16.13s-2.15,11.37.91,15.92c1.46,2.19,4,3.88,6.62,3.5a5,5,0,0,1,1.63-.14,2.23,2.23,0,0,1,1.47,1.21c1.11,2.18-.57,4.7-2.22,6.49-8.58,9.3-19.55,17.28-23.64,29.25a7.84,7.84,0,0,0-.38,2.84l53.71-31Z" style="fill:#f5f5f5"></path><polygon points="120.11 50.6 61.78 84.28 57.43 81.67 115.76 47.99 120.11 50.6" style="fill:#f0f0f0"></polygon><polygon points="61.78 110.29 57.43 107.68 57.43 81.67 61.78 84.28 61.78 110.29" style="fill:#e6e6e6"></polygon><polygon points="120.11 76.62 61.78 110.29 61.78 84.28 120.11 50.6 120.11 76.62" style="fill:#fff"></polygon><path d="M119.11,52.33V76L62.78,108.56V84.85l56.33-32.52m1-1.73L61.78,84.27v26l58.33-33.67v-26Z" style="fill:#f0f0f0"></path><path d="M61.78,94.21a11.36,11.36,0,0,0,5.37,3.09c3.09.54,6.13-1.16,8.49-3.23a26.14,26.14,0,0,0,5.55-6.91c2.57-4.63,3.75-10.08,7.2-14.1a6.13,6.13,0,0,1,3.06-2.16,2.85,2.85,0,0,1,3.25,1.33c.8,1.75-.91,3.79-.41,5.65A3.26,3.26,0,0,0,97.61,80a7.19,7.19,0,0,0,3.84-1.67c2.72-2.07,4.8-4.85,7.15-7.33s5.16-4.76,8.52-5.38a8.35,8.35,0,0,1,3,0v11L61.78,110.29Z" style="fill:#f5f5f5"></path></g><g id="freepik--Stair--inject-751"><path d="M285,285.84a2.15,2.15,0,0,1-.7-.12A2,2,0,0,1,283,283.1L322.7,173.51a2,2,0,1,1,3.84,1.39L286.87,284.49A2,2,0,0,1,285,285.84Z" style="fill:#00B0FF"></path><g style="opacity:0.5"><path d="M285,285.84a2.15,2.15,0,0,1-.7-.12A2,2,0,0,1,283,283.1L322.7,173.51a2,2,0,1,1,3.84,1.39L286.87,284.49A2,2,0,0,1,285,285.84Z"></path></g><path d="M341.79,255.55a2,2,0,0,1-1.05-.29L304.85,233.8a2,2,0,0,1,2.1-3.51l35.89,21.46a2,2,0,0,1-1,3.8Z" style="fill:#00B0FF"></path><g style="opacity:0.6000000000000001"><path d="M341.79,255.55a2,2,0,0,1-1.05-.29L304.85,233.8a2,2,0,0,1,2.1-3.51l35.89,21.46a2,2,0,0,1-1,3.8Z"></path></g><path d="M359.86,326.89l-35.39-164a5.12,5.12,0,0,0-7-3.63L304.05,165l2.56,3.34L319.05,163a1,1,0,0,1,1.43.74l35.38,164a2,2,0,0,0,4-.86Z" style="fill:#00B0FF"></path><path d="M359.86,326.89l-35.39-164a5.12,5.12,0,0,0-7-3.63L304.05,165l2.56,3.34L319.05,163a1,1,0,0,1,1.43.74l35.38,164a2,2,0,0,0,4-.86Z" style="opacity:0.30000000000000004"></path><path d="M309,219.15l30.3-17.53a1.05,1.05,0,0,0,0-1.82L318.93,188a2.64,2.64,0,0,0-2.65,0L285.77,205.7a1.05,1.05,0,0,0,0,1.82L306,219.15A3.06,3.06,0,0,0,309,219.15Z" style="fill:#00B0FF"></path><path d="M285.24,206.55v.06s0,0,0-.06Z" style="fill:#00B0FF"></path><path d="M339.33,201.62,309,219.15a3.06,3.06,0,0,1-3.07,0l-20.19-11.63a1.06,1.06,0,0,1-.53-.91v2.08h0a1,1,0,0,0,.53.91L306,221.24a3.09,3.09,0,0,0,3.07,0l30.3-17.52a1.05,1.05,0,0,0,.53-.89h0v-2.11A1,1,0,0,1,339.33,201.62Z" style="fill:#00B0FF"></path><path d="M339.85,200.68s0,0,0,0v0Z" style="fill:#00B0FF"></path><g style="opacity:0.2"><path d="M285.24,206.55v.06s0,0,0-.06Z"></path><path d="M339.33,201.62,309,219.15a3.06,3.06,0,0,1-3.07,0l-20.19-11.63a1.06,1.06,0,0,1-.53-.91v2.08h0a1,1,0,0,0,.53.91L306,221.24a3.09,3.09,0,0,0,3.07,0l30.3-17.52a1.05,1.05,0,0,0,.53-.89h0v-2.11A1,1,0,0,1,339.33,201.62Z"></path><path d="M339.85,200.68s0,0,0,0v0Z"></path></g><path d="M315,245.55,345.29,228a1.05,1.05,0,0,0,0-1.82l-11.69-6.78a2.62,2.62,0,0,0-2.64,0l-30.52,17.65a1.05,1.05,0,0,0,0,1.82l11.48,6.65A3.06,3.06,0,0,0,315,245.55Z" style="fill:#00B0FF"></path><path d="M299.91,237.93v0Z" style="fill:#00B0FF"></path><path d="M345.29,228,315,245.55a3.06,3.06,0,0,1-3.07,0l-11.48-6.65a1,1,0,0,1-.52-.91v2.08h0a1,1,0,0,0,.52.91l11.48,6.66a3.09,3.09,0,0,0,3.07,0l30.31-17.52a1.06,1.06,0,0,0,.52-.89h0v-2.11A1,1,0,0,1,345.29,228Z" style="fill:#00B0FF"></path><path d="M345.81,227.08v0Z" style="fill:#00B0FF"></path><g style="opacity:0.2"><path d="M299.91,237.93v0Z"></path><path d="M345.29,228,315,245.55a3.06,3.06,0,0,1-3.07,0l-11.48-6.65a1,1,0,0,1-.52-.91v2.08h0a1,1,0,0,0,.52.91l11.48,6.66a3.09,3.09,0,0,0,3.07,0l30.31-17.52a1.06,1.06,0,0,0,.52-.89h0v-2.11A1,1,0,0,1,345.29,228Z"></path><path d="M345.81,227.08v0Z"></path></g><path d="M319.86,271.75l30.3-17.53a1.05,1.05,0,0,0,0-1.82l-11.69-6.78a2.67,2.67,0,0,0-2.65,0l-30.51,17.65a1.05,1.05,0,0,0,0,1.82l11.48,6.66A3.06,3.06,0,0,0,319.86,271.75Z" style="fill:#00B0FF"></path><path d="M304.79,264.13v0Z" style="fill:#00B0FF"></path><path d="M350.16,254.22l-30.3,17.53a3.06,3.06,0,0,1-3.07,0l-11.48-6.66a1,1,0,0,1-.52-.9v2.08h0a1,1,0,0,0,.52.91l11.48,6.65a3.06,3.06,0,0,0,3.07,0l30.3-17.53a1,1,0,0,0,.53-.89h0v-2.1A1,1,0,0,1,350.16,254.22Z" style="fill:#00B0FF"></path><path d="M350.68,253.28v0Z" style="fill:#00B0FF"></path><g style="opacity:0.2"><path d="M304.79,264.13v0Z"></path><path d="M350.16,254.22l-30.3,17.53a3.06,3.06,0,0,1-3.07,0l-11.48-6.66a1,1,0,0,1-.52-.9v2.08h0a1,1,0,0,0,.52.91l11.48,6.65a3.06,3.06,0,0,0,3.07,0l30.3-17.53a1,1,0,0,0,.53-.89h0v-2.1A1,1,0,0,1,350.16,254.22Z"></path><path d="M350.68,253.28v0Z"></path></g><path d="M325.92,297.83l30.3-17.52a1.05,1.05,0,0,0,0-1.82l-11.69-6.78a2.67,2.67,0,0,0-2.65,0l-30.51,17.65a1.05,1.05,0,0,0,0,1.82l11.48,6.66A3.09,3.09,0,0,0,325.92,297.83Z" style="fill:#00B0FF"></path><path d="M310.84,290.22v0s0,0,0,0Z" style="fill:#00B0FF"></path><path d="M356.22,280.31l-30.3,17.52a3.09,3.09,0,0,1-3.07,0l-11.48-6.66a1,1,0,0,1-.53-.91v2.09h0a1,1,0,0,0,.53.9l11.48,6.66a3.06,3.06,0,0,0,3.07,0l30.3-17.53a1,1,0,0,0,.52-.89h0v-2.11A1.06,1.06,0,0,1,356.22,280.31Z" style="fill:#00B0FF"></path><path d="M356.74,279.36v0Z" style="fill:#00B0FF"></path><g style="opacity:0.2"><path d="M310.84,290.22v0s0,0,0,0Z"></path><path d="M356.22,280.31l-30.3,17.52a3.09,3.09,0,0,1-3.07,0l-11.48-6.66a1,1,0,0,1-.53-.91v2.09h0a1,1,0,0,0,.53.9l11.48,6.66a3.06,3.06,0,0,0,3.07,0l30.3-17.53a1,1,0,0,0,.52-.89h0v-2.11A1.06,1.06,0,0,1,356.22,280.31Z"></path><path d="M356.74,279.36v0Z"></path></g><path d="M331.24,324.38l30.3-17.53a1.05,1.05,0,0,0,0-1.82l-11.69-6.78a2.64,2.64,0,0,0-2.65,0l-30.51,17.65a1.05,1.05,0,0,0,0,1.82l11.48,6.65A3.06,3.06,0,0,0,331.24,324.38Z" style="fill:#00B0FF"></path><path d="M316.16,316.76v.06s0,0,0-.06Z" style="fill:#00B0FF"></path><path d="M361.54,306.85l-30.3,17.53a3.06,3.06,0,0,1-3.07,0l-11.48-6.65a1.06,1.06,0,0,1-.53-.91v2.08h0a1,1,0,0,0,.53.91l11.48,6.65a3.06,3.06,0,0,0,3.07,0l30.3-17.53a1,1,0,0,0,.52-.88h0v-2.11A1,1,0,0,1,361.54,306.85Z" style="fill:#00B0FF"></path><path d="M362.06,305.91v0Z" style="fill:#00B0FF"></path><g style="opacity:0.2"><path d="M316.16,316.76v.06s0,0,0-.06Z"></path><path d="M361.54,306.85l-30.3,17.53a3.06,3.06,0,0,1-3.07,0l-11.48-6.65a1.06,1.06,0,0,1-.53-.91v2.08h0a1,1,0,0,0,.53.91l11.48,6.65a3.06,3.06,0,0,0,3.07,0l30.3-17.53a1,1,0,0,0,.52-.88h0v-2.11A1,1,0,0,1,361.54,306.85Z"></path><path d="M362.06,305.91v0Z"></path></g><path d="M256,303.89a2.09,2.09,0,0,1-.69-.12,2,2,0,0,1-1.23-2.62l39.68-109.59a2,2,0,0,1,2.61-1.23,2.05,2.05,0,0,1,1.23,2.62L257.87,302.54A2,2,0,0,1,256,303.89Z" style="fill:#00B0FF"></path><g style="opacity:0.5"><path d="M256,303.89a2.09,2.09,0,0,1-.69-.12,2,2,0,0,1-1.23-2.62l39.68-109.59a2,2,0,0,1,2.61-1.23,2.05,2.05,0,0,1,1.23,2.62L257.87,302.54A2,2,0,0,1,256,303.89Z"></path></g><path d="M311.68,273.16a2.1,2.1,0,0,1-1.05-.29L274.74,251.4a2,2,0,0,1,2.1-3.51l35.89,21.47a2,2,0,0,1-1.05,3.8Z" style="fill:#00B0FF"></path><g style="opacity:0.6000000000000001"><path d="M311.68,273.16a2.1,2.1,0,0,1-1.05-.29L274.74,251.4a2,2,0,0,1,2.1-3.51l35.89,21.47a2,2,0,0,1-1.05,3.8Z"></path></g><path d="M296.52,168.29a9.89,9.89,0,0,0-5.75,11.14l35.47,164.62a2,2,0,0,0,2,1.62,2.1,2.1,0,0,0,.43-.05,2,2,0,0,0,1.57-2.43L294.77,178.57a5.81,5.81,0,0,1,3.36-6.53l8.48-3.66L304.05,165Z" style="fill:#00B0FF"></path><path d="M296.52,168.29a9.89,9.89,0,0,0-5.75,11.14l35.47,164.62a2,2,0,0,0,2,1.62,2.1,2.1,0,0,0,.43-.05,2,2,0,0,0,1.57-2.43L294.77,178.57a5.81,5.81,0,0,1,3.36-6.53l8.48-3.66L304.05,165Z" style="opacity:0.30000000000000004"></path></g><g id="freepik--Statue--inject-751"><polygon points="319.16 349.67 203.34 416.53 192.23 400.13 302.94 336.33 319.16 349.67" style="fill:#37474f"></polygon><polygon points="203.34 416.53 203.34 460.11 87.53 393.24 87.53 349.67 203.34 416.53" style="fill:#263238"></polygon><polygon points="319.16 393.24 203.34 460.11 203.34 416.53 319.16 349.67 319.16 393.24" style="fill:#455a64"></polygon><polygon points="203.34 416.53 211.07 397.16 98.6 332.35 87.53 349.67 203.34 416.53" style="fill:#37474f"></polygon><polygon points="319.16 326.59 203.34 393.45 87.53 326.59 203.34 259.72 319.16 326.59" style="fill:#37474f"></polygon><polygon points="203.34 393.45 203.34 403.48 87.53 336.61 87.53 326.59 203.34 393.45" style="fill:#263238"></polygon><polygon points="319.16 336.61 203.34 403.48 203.34 393.45 319.16 326.59 319.16 336.61" style="fill:#455a64"></polygon><polygon points="291.25 399.56 231.25 434.2 223.57 431.89 223.57 421.4 231.25 410.22 291.25 375.58 298.93 378.26 298.93 388 291.25 399.56" style="fill:#00B0FF"></polygon><path d="M209.13,47.94s22.37,7.25,8,42.51C210.4,107,206.32,116.11,191.66,112s-33.17-21.28-23.47-50.29S209.13,47.94,209.13,47.94Z" style="fill:#00B0FF"></path><path d="M171.25,78.31s1.55-9-4.49-10.9c-6.62-2.07-9.34,4.1-9.89,6.42-1.46,6.07,1.57,13.94,10.56,16.74Z" style="fill:#00B0FF"></path><path d="M220.41,68.41a16.21,16.21,0,0,0-4.8-19.95c-10.67-8.78-23.21-19.7-45.84-10.52s-20.5,49.25-19.48,62.1,1.8,20.13,1.8,20.13-16.75,6-14.57,23.43c1.95,15.67,5.78,26.15,15,26.6A26.5,26.5,0,0,1,164,184.59c3.45,10.21,5.84,17.5,4.11,19.84S159,215,156.7,218.52c0,0-8-4.09-8.43,8.14-.18,5.56-4.66,8.85-6.92,12.25s-12.19,17.94-8.21,33.59,4.94,17.84,4.94,35v29.1s26.32,26.05,43.39,28,77.64-21.27,83.61-37c3.86-10.18-1.39-27.58-1.26-37.77s.78-16.2-6.16-24.42.74-21.6-8.28-37.54c-6.12-10.83-9.46-16-12.91-18.35a12.39,12.39,0,0,1-5.27-10.31v-4.51a4.43,4.43,0,0,0-3.8-4.38h0s.21-17.23,1.41-26c0,0,9.85-4,7.92-18.19s-14.43-26.45-14.43-26.45,4.26-19.31-6.39-26.16Z" style="fill:#00B0FF"></path><path d="M137.52,143.6c1.95,15.67,5.78,26.15,15,26.6,12-2.94,7.57-25,1.35-35.86s-14.65-2.51-14.65-2.51A21,21,0,0,0,137.52,143.6Z" style="fill:#00B0FF"></path><path d="M220.41,68.41a16.21,16.21,0,0,0-4.8-19.95c-10.67-8.78-23.21-19.7-45.84-10.52s-20.5,49.25-19.48,62.1,1.8,20.13,1.8,20.13-16.75,6-14.57,23.43c1.95,15.67,5.78,26.15,15,26.6A26.5,26.5,0,0,1,164,184.59c3.45,10.21,5.84,17.5,4.11,19.84S159,215,156.7,218.52c0,0-8-4.09-8.43,8.14-.18,5.56-4.66,8.85-6.92,12.25s-12.19,17.94-8.21,33.59,4.94,17.84,4.94,35v29.1s26.32,26.05,43.39,28,77.64-21.27,83.61-37c3.86-10.18-1.39-27.58-1.26-37.77s.78-16.2-6.16-24.42.74-21.6-8.28-37.54c-6.12-10.83-9.46-16-12.91-18.35a12.39,12.39,0,0,1-5.27-10.31v-4.51a4.43,4.43,0,0,0-3.8-4.38h0s.21-17.23,1.41-26c0,0,9.85-4,7.92-18.19s-14.43-26.45-14.43-26.45,4.26-19.31-6.39-26.16Z" style="fill:#fff;opacity:0.7000000000000001"></path><path d="M169.77,91V113.3s1.44,19.37,21.68,19.37c5.56,0,7.23-6.95,7.23-13.74V103.78Z" style="fill:#00B0FF"></path><path d="M169.77,91V113.3s1.44,19.37,21.68,19.37c5.56,0,7.23-6.95,7.23-13.74V103.78Z" style="fill:#fff;opacity:0.5"></path><path d="M137.52,143.6c1.95,15.67,5.78,26.15,15,26.6,12-2.94,7.57-25,1.35-35.86s-14.65-2.51-14.65-2.51A21,21,0,0,0,137.52,143.6Z" style="fill:#00B0FF"></path><path d="M137.52,143.6c1.95,15.67,5.78,26.15,15,26.6,12-2.94,7.57-25,1.35-35.86s-14.65-2.51-14.65-2.51A21,21,0,0,0,137.52,143.6Z" style="fill:#fff;opacity:0.5"></path><path d="M212.79,57s4.1,6.9,8.83,7.82c.88-4,.89-10.68-6-16.34-10.67-8.78-23.21-19.7-45.84-10.52s-20.5,49.25-19.48,62.1,1.8,20.13,1.8,20.13L170,111.55v-40S202.48,71.06,212.79,57Z" style="fill:#00B0FF"></path><path d="M212.79,57s4.1,6.9,8.83,7.82c.88-4,.89-10.68-6-16.34-10.67-8.78-23.21-19.7-45.84-10.52s-20.5,49.25-19.48,62.1,1.8,20.13,1.8,20.13L170,111.55v-40S202.48,71.06,212.79,57Z" style="fill:#fff;opacity:0.6000000000000001"></path><path d="M169.34,97.5a3.06,3.06,0,0,1-5.84-.61c-.35-1.93-.89-4.14-1.59-4.89-1.35-1.45-.82,4.46-1.11,9.35s-.14,9.93-4.28,9.73-5.81-6-5.82-6c.81,9.67,1.39,15,1.39,15L170,111.55V95.1A18.67,18.67,0,0,1,169.34,97.5Z" style="fill:#00B0FF"></path><path d="M169.34,97.5a3.06,3.06,0,0,1-5.84-.61c-.35-1.93-.89-4.14-1.59-4.89-1.35-1.45-.82,4.46-1.11,9.35s-.14,9.93-4.28,9.73-5.81-6-5.82-6c.81,9.67,1.39,15,1.39,15L170,111.55V95.1A18.67,18.67,0,0,1,169.34,97.5Z" style="fill:#fff;opacity:0.4"></path><path d="M172.22,72.8s-4.38-9.65-10.7-6.8-9.82,21.53,10.7,26Z" style="fill:#00B0FF"></path><path d="M172.22,72.8s-4.38-9.65-10.7-6.8-9.82,21.53,10.7,26Z" style="fill:#fff;opacity:0.7000000000000001"></path><path d="M213.32,57.8l-.25-.37-.28-.45C202.48,71.06,170,71.57,170,71.57V88.93a18.19,18.19,0,0,0,4.48,12.13A37.06,37.06,0,0,0,191.66,112c14.66,4.14,18.74-4.94,25.49-21.52,4.53-11.12,5.4-19.45,4.47-25.65C217.9,64.07,214.57,59.65,213.32,57.8Z" style="fill:#00B0FF"></path><path d="M213.32,57.8l-.25-.37-.28-.45C202.48,71.06,170,71.57,170,71.57V88.93a18.19,18.19,0,0,0,4.48,12.13A37.06,37.06,0,0,0,191.66,112c14.66,4.14,18.74-4.94,25.49-21.52,4.53-11.12,5.4-19.45,4.47-25.65C217.9,64.07,214.57,59.65,213.32,57.8Z" style="fill:#fff;opacity:0.7000000000000001"></path><path d="M161.91,70s7.93.39,7.08,13.95C169,84,168,72.92,161.91,70Z" style="fill:#00B0FF"></path><path d="M161.91,70s7.93.39,7.08,13.95C169,84,168,72.92,161.91,70Z" style="fill:#fff;opacity:0.5"></path><path d="M209.52,79.23s-.13,10.5-1.49,13.61c-.95,2.2-3.06,2.59-6.43.67-3.1-1.76,1.45,5.18,2.74,5.18,1.07,0,5.24-2.86,5.61-5.37C210.72,88.21,209.52,77.74,209.52,79.23Z" style="fill:#00B0FF"></path><path d="M209.52,79.23s-.13,10.5-1.49,13.61c-.95,2.2-3.06,2.59-6.43.67-3.1-1.76,1.45,5.18,2.74,5.18,1.07,0,5.24-2.86,5.61-5.37C210.72,88.21,209.52,77.74,209.52,79.23Z" style="fill:#fff;opacity:0.5"></path><path d="M199.93,78.73s-5.18,4.06-12.66-2.7c0,0,1.79,5.25,7.2,5.83C196.48,82.07,199.43,80,199.93,78.73Z" style="fill:#00B0FF"></path><path d="M199.93,78.73s-5.18,4.06-12.66-2.7c0,0,1.79,5.25,7.2,5.83C196.48,82.07,199.43,80,199.93,78.73Z" style="fill:#fff;opacity:0.5"></path><path d="M210.21,78.08s3.27,4.49,9.5-1.57c0,0-1.92,5-5.91,5.15C212.31,81.7,210.42,79.38,210.21,78.08Z" style="fill:#00B0FF"></path><path d="M210.21,78.08s3.27,4.49,9.5-1.57c0,0-1.92,5-5.91,5.15C212.31,81.7,210.42,79.38,210.21,78.08Z" style="fill:#fff;opacity:0.5"></path><path d="M217.15,110.07a22.3,22.3,0,0,0,5.15,9.57s2-9.17-.2-17.11C220.33,104.58,216.86,108.8,217.15,110.07Z" style="fill:#00B0FF"></path><path d="M217.15,110.07a22.3,22.3,0,0,0,5.15,9.57s2-9.17-.2-17.11C220.33,104.58,216.86,108.8,217.15,110.07Z" style="fill:#fff;opacity:0.5"></path><path d="M218.36,87.3c-.7,1.61-10.48,23.78-19.68,23.78A42.69,42.69,0,0,1,181.2,107a35.48,35.48,0,0,0,10.46,5c14.66,4.14,18.74-4.94,25.49-21.52C217.59,89.37,218,88.32,218.36,87.3Z" style="fill:#00B0FF"></path><path d="M218.36,87.3c-.7,1.61-10.48,23.78-19.68,23.78A42.69,42.69,0,0,1,181.2,107a35.48,35.48,0,0,0,10.46,5c14.66,4.14,18.74-4.94,25.49-21.52C217.59,89.37,218,88.32,218.36,87.3Z" style="fill:#fff;opacity:0.8"></path><path d="M189.09,86.74l3.68,3a7.54,7.54,0,0,1,1.7,1.73c3,4.71-5.21,3.81-7.38,3.53a7.39,7.39,0,0,1-4.19-1.52,6.8,6.8,0,0,1-1.54-2.54c-.75-1.93-2-6.13-.25-7.87s4.38.73,5.68,1.79Z" style="fill:#00B0FF"></path><path d="M189.09,86.74l3.68,3a7.54,7.54,0,0,1,1.7,1.73c3,4.71-5.21,3.81-7.38,3.53a7.39,7.39,0,0,1-4.19-1.52,6.8,6.8,0,0,1-1.54-2.54c-.75-1.93-2-6.13-.25-7.87s4.38.73,5.68,1.79Z" style="fill:#fff;opacity:0.8"></path><path d="M174.89,167.14s4.75,15.73,23.79,15.73c9.65,0,16-13.53,16-13.53S213,186,198.68,188.5,173.68,177.44,174.89,167.14Z" style="fill:#00B0FF"></path><path d="M174.89,167.14s4.75,15.73,23.79,15.73c9.65,0,16-13.53,16-13.53S213,186,198.68,188.5,173.68,177.44,174.89,167.14Z" style="fill:#fff;opacity:0.5"></path><path d="M176.08,164.28S179,181,197.23,181c9.77,0,16.87-11.2,17.44-13.82s-4.46,2.9-11.33,3.06c-11.53.27-11.76-19.09-22.14-15.67C174.8,156.64,176.08,164.28,176.08,164.28Z" style="fill:#00B0FF"></path><path d="M176.08,164.28S179,181,197.23,181c9.77,0,16.87-11.2,17.44-13.82s-4.46,2.9-11.33,3.06c-11.53.27-11.76-19.09-22.14-15.67C174.8,156.64,176.08,164.28,176.08,164.28Z" style="fill:#fff;opacity:0.8"></path><path d="M235.25,151c-2.14,2.68-5.05,5.07-8.42,5.07-12.71,0-14.78-14.53-14.78-14.53s0-.31-.06-.8c-4,2.08-3.15,8.26-3.15,8.26s2.07,14.53,14.78,14.53c6.82,0,11.78-9.75,12.18-12C235.91,150.81,235.7,150.74,235.25,151Z" style="fill:#00B0FF;opacity:0.8"></path><path d="M235.25,151c-2.14,2.68-5.05,5.07-8.42,5.07-12.71,0-14.78-14.53-14.78-14.53s0-.31-.06-.8c-4,2.08-3.15,8.26-3.15,8.26s2.07,14.53,14.78,14.53c6.82,0,11.78-9.75,12.18-12C235.91,150.81,235.7,150.74,235.25,151Z" style="fill:#fff;opacity:0.8"></path><path d="M220.79,165.37s3.19,4.21,7.47,4.18c.16-1.92.34-3.73.55-5.27A11.64,11.64,0,0,1,220.79,165.37Z" style="fill:#00B0FF"></path><path d="M220.79,165.37s3.19,4.21,7.47,4.18c.16-1.92.34-3.73.55-5.27A11.64,11.64,0,0,1,220.79,165.37Z" style="fill:#fff;opacity:0.5"></path><path d="M200.41,232.05c-10.32,4.81-27.09,4.39-31.3,4.1s-8.45-9.5-8.45-9.5c3.46-8.93,13.23-15.53,14.14-19s-4.36-23.87-7.24-29.27c-2.75-5.15-11.1-5.86-11.84-5.92A27.16,27.16,0,0,1,164,184.59c3.45,10.21,5.84,17.5,4.11,19.84S159,215,156.7,218.52l-2.84,4.37s.76,15.28,19.46,16.88S200.41,232.05,200.41,232.05Z" style="fill:#00B0FF"></path><path d="M200.41,232.05c-10.32,4.81-27.09,4.39-31.3,4.1s-8.45-9.5-8.45-9.5c3.46-8.93,13.23-15.53,14.14-19s-4.36-23.87-7.24-29.27c-2.75-5.15-11.1-5.86-11.84-5.92A27.16,27.16,0,0,1,164,184.59c3.45,10.21,5.84,17.5,4.11,19.84S159,215,156.7,218.52l-2.84,4.37s.76,15.28,19.46,16.88S200.41,232.05,200.41,232.05Z" style="fill:#fff;opacity:0.5"></path><path d="M177.05,363.62c-16.28-6.61-28.46-23.72-28.46-23.72s2-20.59,2.57-34.12-9.78-27.33-10.93-40.4,8.06-13.69,9.17-23S156,229.65,156,229.65l-2.09-6.76,2.84-4.37h0s-8-4.09-8.43,8.14c-.18,5.56-4.66,8.85-6.92,12.25s-12.19,17.94-8.21,33.59,4.94,17.84,4.94,35v29.1S160.22,358.51,177.05,363.62Z" style="fill:#00B0FF"></path><path d="M177.05,363.62c-16.28-6.61-28.46-23.72-28.46-23.72s2-20.59,2.57-34.12-9.78-27.33-10.93-40.4,8.06-13.69,9.17-23S156,229.65,156,229.65l-2.09-6.76,2.84-4.37h0s-8-4.09-8.43,8.14c-.18,5.56-4.66,8.85-6.92,12.25s-12.19,17.94-8.21,33.59,4.94,17.84,4.94,35v29.1S160.22,358.51,177.05,363.62Z" style="fill:#fff;opacity:0.5"></path><path d="M156,236.07s6.64,7.43,12.87,9.22,29.07-1.21,42.25-12.51c0,0-14,17.74-42.25,16.33C163,248.81,152.68,239.44,156,236.07Z" style="fill:#00B0FF"></path><path d="M156,236.07s6.64,7.43,12.87,9.22,29.07-1.21,42.25-12.51c0,0-14,17.74-42.25,16.33C163,248.81,152.68,239.44,156,236.07Z" style="fill:#fff;opacity:0.8"></path><path d="M227.4,190.29S223,215.87,208.64,227.2c0,0,12.15-5.72,18.33-21.56C231.24,194.69,227.4,190.29,227.4,190.29Z" style="fill:#00B0FF"></path><path d="M227.4,190.29S223,215.87,208.64,227.2c0,0,12.15-5.72,18.33-21.56C231.24,194.69,227.4,190.29,227.4,190.29Z" style="fill:#fff;opacity:0.5"></path><path d="M148.59,238s.69,26.56,32.61,25.75S236.73,233,236.73,233s-21.32,35.79-59.68,35.79S148.59,238,148.59,238Z" style="fill:#00B0FF"></path><path d="M148.59,238s.69,26.56,32.61,25.75S236.73,233,236.73,233s-21.32,35.79-59.68,35.79S148.59,238,148.59,238Z" style="fill:#fff;opacity:0.5"></path><path d="M254.94,274.54a2.37,2.37,0,0,0-3.09.09,85.57,85.57,0,0,1-12.93,9.76c-7.48,4.42-15.54,7.29-12.66,13.62,2.28,5,21.49-.82,29.33-3.45a7,7,0,0,0,4.5-4.61c.94-3,2-7.17,1.16-8.91C260.35,279.08,257,276.19,254.94,274.54Z" style="fill:#00B0FF"></path><path d="M254.94,274.54a2.37,2.37,0,0,0-3.09.09,85.57,85.57,0,0,1-12.93,9.76c-7.48,4.42-15.54,7.29-12.66,13.62,2.28,5,21.49-.82,29.33-3.45a7,7,0,0,0,4.5-4.61c.94-3,2-7.17,1.16-8.91C260.35,279.08,257,276.19,254.94,274.54Z" style="fill:#fff;opacity:0.8"></path><path d="M169.77,287s19.23-1.62,25,0,10.33,7,10.33,10.44-14.57,8.44-17.64,9.59S167.85,297.28,169.77,287Z" style="fill:#00B0FF"></path><path d="M169.77,287s19.23-1.62,25,0,10.33,7,10.33,10.44-14.57,8.44-17.64,9.59S167.85,297.28,169.77,287Z" style="fill:#fff;opacity:0.8"></path><path d="M210.21,53.06S198,68.41,173.41,67.83C173.41,67.83,195,65,210.21,53.06Z" style="fill:#00B0FF"></path><path d="M210.21,53.06S198,68.41,173.41,67.83C173.41,67.83,195,65,210.21,53.06Z" style="fill:#fff;opacity:0.8"></path><path d="M251.27,327.67c-1.12,1.36-2.24,2.95-2,4.7.12,1.08.74,2.09.68,3.18-.09,1.48-1.43,2.89-.89,4.27.69,1.75,3.33,1.24,5,2.11,1.46.76,2.12,2.59,3.58,3.35,1.67.86,3.71,0,5.21-1.13s2.88-2.56,4.7-3a6.55,6.55,0,0,0,2-.55,3.9,3.9,0,0,0,1.09-1.23l2.63-4a6.21,6.21,0,0,0,1.35-3.27,10.4,10.4,0,0,0-.95-3.18c-.5-1.48-.53-3.11-1.26-4.49a8,8,0,0,0-3.46-3c-2.6-1.38-6.14-3-9-1.7C256.48,321.2,253.59,324.89,251.27,327.67Z" style="fill:#00B0FF"></path><path d="M251.27,327.67c-1.12,1.36-2.24,2.95-2,4.7.12,1.08.74,2.09.68,3.18-.09,1.48-1.43,2.89-.89,4.27.69,1.75,3.33,1.24,5,2.11,1.46.76,2.12,2.59,3.58,3.35,1.67.86,3.71,0,5.21-1.13s2.88-2.56,4.7-3a6.55,6.55,0,0,0,2-.55,3.9,3.9,0,0,0,1.09-1.23l2.63-4a6.21,6.21,0,0,0,1.35-3.27,10.4,10.4,0,0,0-.95-3.18c-.5-1.48-.53-3.11-1.26-4.49a8,8,0,0,0-3.46-3c-2.6-1.38-6.14-3-9-1.7C256.48,321.2,253.59,324.89,251.27,327.67Z" style="fill:#fff;opacity:0.5"></path><path d="M268.91,328.54a12.43,12.43,0,0,1-4.8,5.4,9,9,0,0,0-2.82,2.07c-.57.82-.74,1.85-1.23,2.73a4.27,4.27,0,0,1-3.34,2.12,1.74,1.74,0,0,0-.78.14,1,1,0,0,0-.35,1.18,2.68,2.68,0,0,0,.81,1.05,4.23,4.23,0,0,0,3.34,1.41c1.77-.31,2.59-2.39,4.08-3.41,1.3-.88,3-.89,4.38-1.71a8.23,8.23,0,0,0,1.88-1.8,22.14,22.14,0,0,0,2.19-2.91,5.4,5.4,0,0,0,.89-2.76,8.24,8.24,0,0,0-.22-1.49c-.36-1.61-.72-3.22-1.07-4.83s-.78-2.07-1.61-.46C269.73,326.32,269.4,327.46,268.91,328.54Z" style="fill:#00B0FF"></path><path d="M268.91,328.54a12.43,12.43,0,0,1-4.8,5.4,9,9,0,0,0-2.82,2.07c-.57.82-.74,1.85-1.23,2.73a4.27,4.27,0,0,1-3.34,2.12,1.74,1.74,0,0,0-.78.14,1,1,0,0,0-.35,1.18,2.68,2.68,0,0,0,.81,1.05,4.23,4.23,0,0,0,3.34,1.41c1.77-.31,2.59-2.39,4.08-3.41,1.3-.88,3-.89,4.38-1.71a8.23,8.23,0,0,0,1.88-1.8,22.14,22.14,0,0,0,2.19-2.91,5.4,5.4,0,0,0,.89-2.76,8.24,8.24,0,0,0-.22-1.49c-.36-1.61-.72-3.22-1.07-4.83s-.78-2.07-1.61-.46C269.73,326.32,269.4,327.46,268.91,328.54Z" style="fill:#fff;opacity:0.8"></path><path d="M228,359a2.94,2.94,0,0,0-.91,2.07,8.91,8.91,0,0,1,.31,1.41c0,.66-.64,1.28-.4,1.89.31.78,1.48.56,2.22.94s.93,1.15,1.58,1.48a2.29,2.29,0,0,0,2.31-.5,6.31,6.31,0,0,1,2.08-1.33,2.64,2.64,0,0,0,.87-.25,1.81,1.81,0,0,0,.49-.54l1.16-1.75a2.77,2.77,0,0,0,.6-1.45,4.85,4.85,0,0,0-.42-1.41,13.32,13.32,0,0,0-.56-2,3.52,3.52,0,0,0-1.53-1.35c-1.15-.61-2.72-1.31-4-.75C230.3,356.11,229,357.74,228,359Z" style="fill:#00B0FF"></path><path d="M228,359a2.94,2.94,0,0,0-.91,2.07,8.91,8.91,0,0,1,.31,1.41c0,.66-.64,1.28-.4,1.89.31.78,1.48.56,2.22.94s.93,1.15,1.58,1.48a2.29,2.29,0,0,0,2.31-.5,6.31,6.31,0,0,1,2.08-1.33,2.64,2.64,0,0,0,.87-.25,1.81,1.81,0,0,0,.49-.54l1.16-1.75a2.77,2.77,0,0,0,.6-1.45,4.85,4.85,0,0,0-.42-1.41,13.32,13.32,0,0,0-.56-2,3.52,3.52,0,0,0-1.53-1.35c-1.15-.61-2.72-1.31-4-.75C230.3,356.11,229,357.74,228,359Z" style="fill:#fff;opacity:0.5"></path><path d="M235.8,359.36a5.52,5.52,0,0,1-2.12,2.39,3.87,3.87,0,0,0-1.25.92,12.07,12.07,0,0,0-.55,1.21,1.87,1.87,0,0,1-1.48.93.77.77,0,0,0-.34.07.45.45,0,0,0-.16.52,1.26,1.26,0,0,0,.36.47,1.88,1.88,0,0,0,1.48.62c.79-.14,1.15-1.06,1.81-1.51s1.34-.39,1.94-.76a3.66,3.66,0,0,0,.83-.79,9.89,9.89,0,0,0,1-1.29,2.38,2.38,0,0,0,.39-1.23,3,3,0,0,0-.1-.66l-.47-2.13c-.15-.68-.34-.92-.71-.21C236.16,358.38,236,358.88,235.8,359.36Z" style="fill:#00B0FF"></path><path d="M235.8,359.36a5.52,5.52,0,0,1-2.12,2.39,3.87,3.87,0,0,0-1.25.92,12.07,12.07,0,0,0-.55,1.21,1.87,1.87,0,0,1-1.48.93.77.77,0,0,0-.34.07.45.45,0,0,0-.16.52,1.26,1.26,0,0,0,.36.47,1.88,1.88,0,0,0,1.48.62c.79-.14,1.15-1.06,1.81-1.51s1.34-.39,1.94-.76a3.66,3.66,0,0,0,.83-.79,9.89,9.89,0,0,0,1-1.29,2.38,2.38,0,0,0,.39-1.23,3,3,0,0,0-.1-.66l-.47-2.13c-.15-.68-.34-.92-.71-.21C236.16,358.38,236,358.88,235.8,359.36Z" style="fill:#fff;opacity:0.8"></path><path d="M243.28,349.19a2.56,2.56,0,0,0-1.7,1.49,3.78,3.78,0,0,0-.16,1c0,.61-.1,1.23-.14,1.84a3.15,3.15,0,0,0,.12,1.5,2.55,2.55,0,0,0,2.23,1.24,2.63,2.63,0,0,0,1.83-.4c.29-.22.5-.53.81-.73a6.19,6.19,0,0,1,1.43-.41,2.33,2.33,0,0,0,1.33-3.11C248.16,349.82,245.11,348.65,243.28,349.19Z" style="fill:#00B0FF"></path><path d="M243.28,349.19a2.56,2.56,0,0,0-1.7,1.49,3.78,3.78,0,0,0-.16,1c0,.61-.1,1.23-.14,1.84a3.15,3.15,0,0,0,.12,1.5,2.55,2.55,0,0,0,2.23,1.24,2.63,2.63,0,0,0,1.83-.4c.29-.22.5-.53.81-.73a6.19,6.19,0,0,1,1.43-.41,2.33,2.33,0,0,0,1.33-3.11C248.16,349.82,245.11,348.65,243.28,349.19Z" style="fill:#fff;opacity:0.5"></path><path d="M275.14,312.89a2.58,2.58,0,0,0-1.7,1.48,4.47,4.47,0,0,0-.16,1c0,.61-.09,1.23-.14,1.84a3,3,0,0,0,.13,1.5,2.55,2.55,0,0,0,2.23,1.24,2.65,2.65,0,0,0,1.83-.4,9.23,9.23,0,0,1,.8-.73,5.69,5.69,0,0,1,1.44-.41,2.34,2.34,0,0,0,1.32-3.11C280,313.51,277,312.35,275.14,312.89Z" style="fill:#00B0FF"></path><path d="M275.14,312.89a2.58,2.58,0,0,0-1.7,1.48,4.47,4.47,0,0,0-.16,1c0,.61-.09,1.23-.14,1.84a3,3,0,0,0,.13,1.5,2.55,2.55,0,0,0,2.23,1.24,2.65,2.65,0,0,0,1.83-.4,9.23,9.23,0,0,1,.8-.73,5.69,5.69,0,0,1,1.44-.41,2.34,2.34,0,0,0,1.32-3.11C280,313.51,277,312.35,275.14,312.89Z" style="fill:#fff;opacity:0.5"></path><path d="M280.37,326.58a1.63,1.63,0,0,0-1.1,1,2.68,2.68,0,0,0-.11.63l-.09,1.2a2,2,0,0,0,.08,1,1.68,1.68,0,0,0,1.45.81,1.74,1.74,0,0,0,1.19-.26c.19-.15.32-.35.52-.48a4.23,4.23,0,0,1,.94-.27,1.52,1.52,0,0,0,.86-2A3.67,3.67,0,0,0,280.37,326.58Z" style="fill:#00B0FF"></path><path d="M280.37,326.58a1.63,1.63,0,0,0-1.1,1,2.68,2.68,0,0,0-.11.63l-.09,1.2a2,2,0,0,0,.08,1,1.68,1.68,0,0,0,1.45.81,1.74,1.74,0,0,0,1.19-.26c.19-.15.32-.35.52-.48a4.23,4.23,0,0,1,.94-.27,1.52,1.52,0,0,0,.86-2A3.67,3.67,0,0,0,280.37,326.58Z" style="fill:#fff;opacity:0.5"></path><path d="M188.66,369.77a1.63,1.63,0,0,0-1.1,1,2.68,2.68,0,0,0-.11.63l-.09,1.19a2,2,0,0,0,.08,1,1.65,1.65,0,0,0,1.45.8,1.69,1.69,0,0,0,1.19-.25c.19-.15.32-.35.52-.48a4.23,4.23,0,0,1,.94-.27,1.52,1.52,0,0,0,.86-2A3.66,3.66,0,0,0,188.66,369.77Z" style="fill:#00B0FF"></path><path d="M188.66,369.77a1.63,1.63,0,0,0-1.1,1,2.68,2.68,0,0,0-.11.63l-.09,1.19a2,2,0,0,0,.08,1,1.65,1.65,0,0,0,1.45.8,1.69,1.69,0,0,0,1.19-.25c.19-.15.32-.35.52-.48a4.23,4.23,0,0,1,.94-.27,1.52,1.52,0,0,0,.86-2A3.66,3.66,0,0,0,188.66,369.77Z" style="fill:#fff;opacity:0.5"></path><path d="M204.27,352.05a3.31,3.31,0,0,0-1.41.53,3.52,3.52,0,0,0-.88,1.2l-5.28,9.87a2.38,2.38,0,0,0-.22,2.42,8.12,8.12,0,0,0,2.09,4,12.19,12.19,0,0,0,2,1.22,13,13,0,0,1,2.75,2.1,3.59,3.59,0,0,0,2.11,1.37,8.34,8.34,0,0,0,1.76-.36c2.13-.3,3.76,2.22,5.91,2.27a5.4,5.4,0,0,0,1.89-.42l3.87-1.35a3,3,0,0,0,1-.48,3.13,3.13,0,0,0,.72-1.12c.5-1.13,1-2.25,1.51-3.38a36.5,36.5,0,0,0,2.74-7.62,4.32,4.32,0,0,0,0-2.34,4.89,4.89,0,0,0-1.17-1.59,8.64,8.64,0,0,0-2.8-2.17c-.59-.23-1.22-.34-1.78-.6a10,10,0,0,1-2-1.53C213.37,351.06,208.65,351.19,204.27,352.05Z" style="fill:#00B0FF"></path><path d="M204.27,352.05a3.31,3.31,0,0,0-1.41.53,3.52,3.52,0,0,0-.88,1.2l-5.28,9.87a2.38,2.38,0,0,0-.22,2.42,8.12,8.12,0,0,0,2.09,4,12.19,12.19,0,0,0,2,1.22,13,13,0,0,1,2.75,2.1,3.59,3.59,0,0,0,2.11,1.37,8.34,8.34,0,0,0,1.76-.36c2.13-.3,3.76,2.22,5.91,2.27a5.4,5.4,0,0,0,1.89-.42l3.87-1.35a3,3,0,0,0,1-.48,3.13,3.13,0,0,0,.72-1.12c.5-1.13,1-2.25,1.51-3.38a36.5,36.5,0,0,0,2.74-7.62,4.32,4.32,0,0,0,0-2.34,4.89,4.89,0,0,0-1.17-1.59,8.64,8.64,0,0,0-2.8-2.17c-.59-.23-1.22-.34-1.78-.6a10,10,0,0,1-2-1.53C213.37,351.06,208.65,351.19,204.27,352.05Z" style="fill:#fff;opacity:0.5"></path><path d="M220.21,357.45a3.45,3.45,0,0,0-.73,1.17c-.74,1.73-1.26,3.54-2,5.26a31,31,0,0,1-6.14,8.69,1.88,1.88,0,0,0-.52.73c-.18.61.27,1.21.69,1.69a2.43,2.43,0,0,0,1.58,1,2.6,2.6,0,0,0,1-.23l3.51-1.39a3.55,3.55,0,0,0,2.72-2.6c1.12-2.85,2.23-5.71,3.35-8.56a4.09,4.09,0,0,0,.39-2.64,4,4,0,0,0-1-1.44C222.35,358.4,221.36,356.4,220.21,357.45Z" style="fill:#00B0FF"></path><path d="M220.21,357.45a3.45,3.45,0,0,0-.73,1.17c-.74,1.73-1.26,3.54-2,5.26a31,31,0,0,1-6.14,8.69,1.88,1.88,0,0,0-.52.73c-.18.61.27,1.21.69,1.69a2.43,2.43,0,0,0,1.58,1,2.6,2.6,0,0,0,1-.23l3.51-1.39a3.55,3.55,0,0,0,2.72-2.6c1.12-2.85,2.23-5.71,3.35-8.56a4.09,4.09,0,0,0,.39-2.64,4,4,0,0,0-1-1.44C222.35,358.4,221.36,356.4,220.21,357.45Z" style="fill:#fff;opacity:0.8"></path><path d="M431.39,137.06l-.19,0c.11-.25.16-.4.16-.4A3,3,0,0,1,431.39,137.06Z" style="fill:#00B0FF"></path><path d="M431.39,137.06l-.19,0c.11-.25.16-.4.16-.4A3,3,0,0,1,431.39,137.06Z" style="fill:#fff;opacity:0.5"></path></g><g id="freepik--Plant--inject-751"><path d="M381.42,376.47s-13.51-13.19-5.82-35.28c4.31-12.39,18.58-21.48,26.71-22.33A38,38,0,0,0,396,329.57l-10.24,6.8,9.41-2.94-2,8.05s-8.76,5.29-10.05,6.45l9.43-2.47S391.79,368.27,381.42,376.47Z" style="fill:#00B0FF"></path><path d="M381.42,376.47s-13.51-13.19-5.82-35.28c4.31-12.39,18.58-21.48,26.71-22.33A38,38,0,0,0,396,329.57l-10.24,6.8,9.41-2.94-2,8.05s-8.76,5.29-10.05,6.45l9.43-2.47S391.79,368.27,381.42,376.47Z" style="opacity:0.4"></path><path d="M381.42,376.47s-7-27.6,3.35-43.7C384.77,332.77,372.64,347,381.42,376.47Z" style="fill:#fff"></path><path d="M396.87,380.2l-16.52-.2h-.17l-16.52.2s-.19,20.36,6.08,28.64h0c1.73,2.21,5.79,3.75,10.53,3.75s8.8-1.55,10.53-3.76C397.06,400.54,396.87,380.2,396.87,380.2Z" style="fill:#37474f"></path><ellipse cx="380.27" cy="380.2" rx="16.61" ry="8.92" style="fill:#455a64"></ellipse><path d="M380.27,377.84c5.71,0,10.55,1.83,12.25,4.37a3.53,3.53,0,0,0,.67-2c0-3.52-5.79-6.37-12.92-6.37s-12.93,2.85-12.93,6.37a3.53,3.53,0,0,0,.67,2C369.71,379.67,374.55,377.84,380.27,377.84Z" style="fill:#263238"></path><path d="M380.27,377.84c-5.72,0-10.56,1.83-12.26,4.37,1.7,2.54,6.54,4.37,12.26,4.37s10.55-1.83,12.25-4.37C390.82,379.67,386,377.84,380.27,377.84Z" style="fill:#e0e0e0"></path><path d="M380.47,383.31s-6.4-.25-11.89-8.75c-2.27-3.5-3.36-5.35-3.36-5.35l8.92-.66-10-2.5-4.72-7.22,8.29-.62s-6.18-2.16-10.59-2.19c0,0-7.65-13.52-9.89-15.44a43.37,43.37,0,0,1,30.23,15C390.05,370.47,382.33,383.69,380.47,383.31Z" style="fill:#00B0FF"></path><path d="M380.47,383.31s4-24.11-21.55-38.62C358.92,344.69,385.44,357.43,380.47,383.31Z" style="fill:#fff"></path><path d="M380.47,383.31s5.8.38,11.55-6.77c2.37-3,3.53-4.51,3.53-4.51l-8-1.44,9.25-1.31,4.94-6.08-7.43-1.33s5.78-1.37,9.76-1c0,0,8.18-11.48,10.38-13a39.35,39.35,0,0,0-28.69,10.71C373,370.82,378.75,383.48,380.47,383.31Z" style="fill:#00B0FF"></path><path d="M380.47,383.31s5.8.38,11.55-6.77c2.37-3,3.53-4.51,3.53-4.51l-8-1.44,9.25-1.31,4.94-6.08-7.43-1.33s5.78-1.37,9.76-1c0,0,8.18-11.48,10.38-13a39.35,39.35,0,0,0-28.69,10.71C373,370.82,378.75,383.48,380.47,383.31Z" style="opacity:0.2"></path><path d="M380.47,383.31s-1.34-22.13,23.07-32.81C403.54,350.5,378.42,359.49,380.47,383.31Z" style="fill:#fff"></path></g><g id="freepik--Character--inject-751"><path d="M337.89,236.38l.51,7.06a5,5,0,0,0,5.5,4.64h0a5,5,0,0,0,4.54-5.37l-.54-7.46Z" style="fill:#ffa8a7"></path><path d="M350.33,247.47a3.47,3.47,0,0,1-.22,2,6.69,6.69,0,0,1-3.42,2.6c-1.26.38-2.95,2.09-4,3.18s-4.49,3.91-7.78,4.72c-2.86.7-6.35.77-9.28-1.82a2.67,2.67,0,0,1-.73-2.93h0a1.34,1.34,0,0,1,.89-.81Z" style="fill:#263238"></path><path d="M348.74,241.2a2.19,2.19,0,0,1,1.42,1.64c.3,1.54.63,4.15-.24,5.59-1.3,2.13-4,2.78-5.51,4s-9.3,9.41-16.25,6.67-1.23-6.9.72-7.78,5.8-3.34,6.63-4.65l2.33-4.2a3.84,3.84,0,0,1,4.26.29c2.38,1.59,1,4.49,1,4.49s5.47-2.13,5.26-5c0-.52-.08-1.12-.08-1.12Z" style="fill:#37474f"></path><path d="M329.53,251l-.65.33c-1.95.88-7.66,5-.72,7.78a9,9,0,0,0,5.81.14C335.88,252.56,330,251.06,329.53,251Z" style="fill:#e0e0e0"></path><path d="M334.53,252.57a.4.4,0,0,1-.32-.17,4.18,4.18,0,0,0-3-2,.39.39,0,0,1-.36-.41.37.37,0,0,1,.39-.36,4.94,4.94,0,0,1,3.6,2.33.39.39,0,0,1-.1.54A.4.4,0,0,1,334.53,252.57Z" style="fill:#e0e0e0"></path><path d="M336.47,251.19a.37.37,0,0,1-.31-.17,4.25,4.25,0,0,0-3-2,.39.39,0,0,1-.37-.4.38.38,0,0,1,.4-.36,5,5,0,0,1,3.6,2.33.39.39,0,0,1-.1.54A.44.44,0,0,1,336.47,251.19Z" style="fill:#e0e0e0"></path><path d="M338.42,249.81a.4.4,0,0,1-.32-.17,4.23,4.23,0,0,0-3-2,.38.38,0,1,1,0-.76,5,5,0,0,1,3.6,2.33.4.4,0,0,1-.1.54A.44.44,0,0,1,338.42,249.81Z" style="fill:#e0e0e0"></path><path d="M339.62,248a.4.4,0,0,1-.32-.17,4.24,4.24,0,0,0-3-2,.38.38,0,0,1-.36-.4.37.37,0,0,1,.39-.37,5,5,0,0,1,3.6,2.34.38.38,0,0,1-.1.53A.33.33,0,0,1,339.62,248Z" style="fill:#e0e0e0"></path><path d="M315.5,212.26,319,224.55a10,10,0,0,0,6.85-.77,4.55,4.55,0,0,0,2.51-4.87l-3.24-9.49Z" style="fill:#ffa8a7"></path><path d="M331.45,223.06a2.08,2.08,0,0,1,.21,2.22,26,26,0,0,1-5.56,5c-2.59,1.87-4.58,6.13-10.78,7.88-3.48,1-5.64.32-6.86-.44a2.68,2.68,0,0,1-1.21-2.56v-.14Z" style="fill:#263238"></path><path d="M327.11,215.51s4.09,6.44,4.34,7.55-5.61,6.17-6.54,6.79-6.92,7.53-12.28,7.71-6.24-2.37-4.64-4.05,6.86-5.94,6.86-5.94l2-6.51s3.56-3.72,5.67,2c0,0,3.94-2,4.65-3.4a2.79,2.79,0,0,0-.31-2.76Z" style="fill:#37474f"></path><path d="M311.52,230.33c-1.37,1.17-2.81,2.43-3.53,3.18-1.6,1.68-.73,4.22,4.64,4.05a12.32,12.32,0,0,0,6.2-2.5C316.69,228.8,311.53,230.33,311.52,230.33Z" style="fill:#e0e0e0"></path><path d="M317.48,230.37a.36.36,0,0,1-.2-.06,6.54,6.54,0,0,0-4-1,.39.39,0,0,1-.44-.32.39.39,0,0,1,.32-.44,7.23,7.23,0,0,1,4.57,1.11.39.39,0,0,1,.12.53A.4.4,0,0,1,317.48,230.37Z" style="fill:#e0e0e0"></path><path d="M319.09,228.84a.42.42,0,0,1-.21-.06,6.5,6.5,0,0,0-4-1,.38.38,0,0,1-.43-.32.39.39,0,0,1,.32-.44,7.24,7.24,0,0,1,4.57,1.11.38.38,0,0,1,.11.53A.36.36,0,0,1,319.09,228.84Z" style="fill:#e0e0e0"></path><path d="M319.8,226.81a.42.42,0,0,1-.21-.06,6.5,6.5,0,0,0-4-1,.38.38,0,0,1-.43-.32.39.39,0,0,1,.32-.44A7.24,7.24,0,0,1,320,226.1a.38.38,0,0,1,.11.53A.38.38,0,0,1,319.8,226.81Z" style="fill:#e0e0e0"></path><path d="M320.39,224.71a.36.36,0,0,1-.2-.06,6.52,6.52,0,0,0-4.05-1,.38.38,0,0,1-.43-.32.39.39,0,0,1,.32-.44A7.23,7.23,0,0,1,320.6,224a.37.37,0,0,1,.11.53A.38.38,0,0,1,320.39,224.71Z" style="fill:#e0e0e0"></path><path d="M292.17,116.16s-5.39-3.76-6.36-2.87-.54,3.1,1.4,4.15l-1.9,6.3a20.81,20.81,0,0,0,5.3,1.31Z" style="fill:#ffa8a7"></path><path d="M319.53,88.06a14.3,14.3,0,0,0-8.25,6.26c-3,5-8.61,20.41-8.61,20.41l-10.35.54-1.71,9.78,15.44,1a5.66,5.66,0,0,0,5.89-4.4Z" style="fill:#00B0FF"></path><path d="M319.53,88.06a14.3,14.3,0,0,0-8.25,6.26c-3,5-8.61,20.41-8.61,20.41l-10.35.54-1.71,9.78,15.44,1a5.66,5.66,0,0,0,5.89-4.4Z" style="fill:#fff;opacity:0.30000000000000004"></path><path d="M337,87.7s8.64,1.29,11.21,2.7c0,0,2.9,39.28,2.77,41.73H311l8.53-44.07s2.76-.27,6.55-.45Z" style="fill:#00B0FF"></path><path d="M323.09,87.78s-6.65,13.07-8.1,23.73a31.75,31.75,0,0,0,15.27,2.19S335.65,95,340.49,88.3l3.9.83s-5.85,10.87-7.27,16.2-2.44,8.85-2.44,8.85l3.58,9.22a13.38,13.38,0,0,0,9.21,8.13l1.29.32a8.7,8.7,0,0,0,2.21.28h0s.75,34.6-1.4,59.25l.69,46.11s-8,2-14.79,0l-5.35-45.1c-.12-1-.19-2-.22-3L329,157.48l-10.47,20.81,9.74,37.4s-4,4.42-14.52,3.17l-13.53-38.23a18.89,18.89,0,0,1-.33-11.59L309,137.71s-2.89-2.41.27-5.06c0,0,1-34.6,10.23-44.59Z" style="fill:#455a64"></path><path d="M315.66,119.1v13.15a4.15,4.15,0,0,0,3.18,4l10,2.44a3,3,0,0,0,3.74-2.94V123.24Z" style="fill:#37474f"></path><path d="M357.49,32.32c-2.82-5.32-10-9.81-16-10-3.14-.11-5.34,1-6.33,2.78h0L289.67,94.69l22.72,13.87,45.36-69.33C359,37.55,359,35.1,357.49,32.32Z" style="fill:#00B0FF"></path><path d="M357.49,32.32c-2.82-5.32-10-9.81-16-10-3.14-.11-5.34,1-6.33,2.78h0L289.67,94.69l22.72,13.87,45.36-69.33C359,37.55,359,35.1,357.49,32.32Z" style="opacity:0.5"></path><ellipse cx="300.74" cy="102.12" rx="7.71" ry="13.36" transform="translate(54.62 302.86) rotate(-57.96)" style="fill:#00B0FF"></ellipse><ellipse cx="300.74" cy="102.12" rx="7.71" ry="13.36" transform="translate(54.62 302.86) rotate(-57.96)" style="opacity:0.30000000000000004"></ellipse><path d="M315.06,63.4s-1.77-8.93,6.48-12.56,21.16-2.27,24,9.06S341.08,78.32,337,79.85Z" style="fill:#263238"></path><path d="M337,87.7l-1.81,3.77A8.31,8.31,0,0,1,327,96.15h0a3.44,3.44,0,0,1-2.76-5l1.84-3.53v-16H337Z" style="fill:#ffa8a7"></path><path d="M326.08,84.76a17.57,17.57,0,0,0,10-9.53V71.56h-10Z" style="fill:#f28f8f"></path><path d="M323.54,53.68s-10.38.4-8.51,17.1c.89,7.86,1.53,12.21,8.26,12.21s16.64-5.07,16-18.56S323.54,53.68,323.54,53.68Z" style="fill:#ffa8a7"></path><polygon points="322.26 68.39 322.26 74.25 318.83 73.2 322.26 68.39" style="fill:#f28f8f"></polygon><path d="M327.28,69.4a1.2,1.2,0,1,1-2.39,0,1.2,1.2,0,0,1,2.39,0Z" style="fill:#263238"></path><path d="M319.42,68.57a1.2,1.2,0,0,1-2.39,0,1.2,1.2,0,1,1,2.39,0Z" style="fill:#263238"></path><path d="M316.77,66.08l2.34-1.39s-.9-.93-1.79-.37A1.62,1.62,0,0,0,316.77,66.08Z" style="fill:#263238"></path><path d="M326.7,65.68l2.11,1.71s.57-1.16-.27-1.8A1.62,1.62,0,0,0,326.7,65.68Z" style="fill:#263238"></path><path d="M320.65,76.63a5.08,5.08,0,0,0,3.21-.87s.22,1.7-1.2,2A1.83,1.83,0,0,1,320.65,76.63Z" style="fill:#f28f8f"></path><path d="M318.23,56.05s1.13,4,9.62,3.38,7.75,1.71,6.83,5.68c-.64,2.74-.69,10,1.42,6.45h4.2v-8.4a10.73,10.73,0,0,0-10.73-10.73h-4.2a8.86,8.86,0,0,0-7.14,3.62Z" style="fill:#263238"></path><path d="M336,71.13s.42-4,3.21-4.1c3.06-.08,3.48,2.87,3.44,3.92-.11,2.75-2.34,5.73-6.5,5.85Z" style="fill:#ffa8a7"></path><path d="M298.28,99.62l-40,62-11,4.08L236,185l20.16,11.88,10.49-19.95-1.18-10.11,39.32-61.75S305,98.72,298.28,99.62Z" style="fill:#e0e0e0"></path><path d="M258.63,192.17c-5.95-3.36-15.44-8.71-20.17-11.4L236,185l20.16,11.88Z" style="fill:#ebebeb"></path><path d="M313.43,114.27l-5.68-1.07a21.66,21.66,0,0,0-4.71-4.85c-2.52-1.7-2.71-4.26-3.57-4.49s-2.65,1.12-.46,5.5a17.76,17.76,0,0,1-5.18-4.57c-2.08-2.89-4.66,3.92-4.4,6.7s1.79,5.35,10.95,8.89c1.62.63,11.28,4.56,11.28,4.56Z" style="fill:#ffa8a7"></path><path d="M348.2,90.4s-2.17.23-5.14,5.22-12.8,22.18-12.8,22.18l-16.83-3.53s-3.23,5.27-1.77,10.67L329.77,131a7.9,7.9,0,0,0,9.1-3.1c4.06-6.08,10.54-16,12.23-19.87C353.61,102.3,356.22,94.58,348.2,90.4Z" style="fill:#00B0FF"></path><path d="M348.2,90.4s-2.17.23-5.14,5.22-12.8,22.18-12.8,22.18l-16.83-3.53s-3.23,5.27-1.77,10.67L329.77,131a7.9,7.9,0,0,0,9.1-3.1c4.06-6.08,10.54-16,12.23-19.87C353.61,102.3,356.22,94.58,348.2,90.4Z" style="fill:#fff;opacity:0.30000000000000004"></path><path d="M282.13,115.37c.92-1.3,4.75-.73,5.81,2.7s-2.16,7.6-3.24,8a4.49,4.49,0,0,1-5-2.21C278.31,121.59,281,116.93,282.13,115.37Z" style="fill:#ffa8a7"></path><path d="M329,157.48l-.15-5.61s-5.28-4.17-6.81-6.19a42.14,42.14,0,0,0,5.24,8v7.18Z" style="fill:#37474f"></path></g></svg>